<?xml version="1.0" encoding="UTF-8"?>
<svg id="Capa_1" data-name="Capa 1" xmlns="http://www.w3.org/2000/svg" viewBox="0 0 144.9 144.9">
  <defs>
    <style>
      .cls-1 {
        fill: #3c3;
      }

      .cls-2 {
        fill: #fefefe;
        fill-rule: evenodd;
      }
    </style>
  </defs>
  <circle class="cls-1" cx="72.45" cy="72.45" r="72.45" transform="translate(-17.63 23.64) rotate(-16.55)"/>
  <g>
    <path class="cls-2" d="M73.25,108.23c-7.56,0-14.57-2.28-20.48-6.12l-14.26,4.52,4.61-13.74c-4.46-6.02-7.1-13.59-7.1-21.67,0-1.2,.09-2.34,.25-3.54,1.81-18.72,17.74-33.35,36.98-33.35s35.63,15.03,37.13,34.03c.06,.98,.06,1.97,.06,2.86,0,20.38-16.69,37.01-37.19,37.01h0Zm44.2-38.06c-.58-23.76-20.13-42.79-44.2-42.79S30.06,45.95,29.07,69.34c-.06,.61-.06,1.29-.06,1.88,0,8.33,2.34,16.08,6.33,22.75l-7.99,23.55,24.53-7.78c6.33,3.47,13.65,5.41,21.36,5.41,24.44,0,44.3-19.61,44.3-43.93,0-.37-.09-.68-.09-1.05Z"/>
    <path class="cls-2" d="M84.91,77.4c-1.08-.28-1.75-.52-2.52,.62-1.11,1.75-3.44,5.59-5.72,4.46-1.14-.52-4.61-1.66-8.76-5.35-3.23-2.89-5.44-6.36-6.03-7.41-.95-1.78,2.06-3.66,3.17-5.9,.37-.74,.22-1.35-.09-1.88-.21-.52-2.4-5.87-3.32-7.99-.89-2.18-1.81-1.81-2.4-1.81-6.03,0-8.85,4.27-8.85,10.27,0,1.2,.25,2.49,.62,3.63,1.08,3.84,3.47,6.95,3.84,7.47,.52,.74,7.47,11.93,18.5,16.23,11.1,4.3,11.1,2.86,13.06,2.7,1.94-.15,6.39-2.55,7.32-5.13,.89-2.49,.89-4.67,.58-5.13-.37-.65-9.41-4.73-9.41-4.77Z"/>
  </g>
</svg>